<svg xmlns="http://www.w3.org/2000/svg" version="1.1" viewBox="0 0 81 44">
  <title>Impa - Instituto de Matemática Pura e Aplicada</title>
  <path d="M.9,0h1.8v1.7H.9V0ZM.9,3h1.8v8H.9V3Z"/>
  <path d="M4.8,3h1.7v1.1h0c.5-.8,1.2-1.3,2.5-1.3s1.9.4,2.3,1.3c.6-.8,1.4-1.3,2.5-1.3,1.7,0,2.7.7,2.7,2.7v5.5h-1.8v-4.7c0-1.3,0-2.1-1.5-2.1s-1.7.8-1.7,2.1v4.7h-1.8v-5.1c0-1.1-.3-1.7-1.4-1.7s-1.8.7-1.8,2.1v4.7h-1.8V3Z"/>
  <path d="M18.6,3h1.7v1.1h0c.5-.9,1.5-1.3,2.5-1.3,2.5,0,3.8,1.9,3.8,4.2s-1.1,4.2-3.5,4.2-2.1-.4-2.7-1.2h0v4h-1.8V3ZM22.6,4.2c-1.5,0-2.3,1.1-2.3,2.8s.8,2.8,2.3,2.8,2.2-1.4,2.2-2.8-.8-2.8-2.2-2.8Z"/>
  <path d="M35.1,9.2c0,.4,0,.6.4.6s.3,0,.4,0v1.2c-.3,0-.8.2-1.1.2-.7,0-1.2-.2-1.4-1-.7.7-1.8,1-2.8,1-1.5,0-2.8-.8-2.8-2.3s1.6-2.3,3.1-2.5c1.3-.2,2.4,0,2.4-1.1s-1-1.1-1.7-1.1-1.7.4-1.8,1.3h-1.8c.1-2.1,1.9-2.7,3.7-2.7s3.2.6,3.2,2.3v4.1h0ZM33.3,7c-.5.4-1.4.3-2.2.5-.8.1-1.5.4-1.5,1.3s1,1,1.6,1,2-.4,2-1.5v-1.3h0Z"/>
  <path d="M11.9,25.2c1.2,0,2.6,0,4-.2,5.7-.6,11.8-2,15.9-3-1.3-.6-2.8-1.3-4.2-1.8-.9-.3-1.8-.7-2.7-.9h0c-.6-.2-1.1-.3-1.6-.5-1.4-.3-3.6-.8-6.3-1.1h-.2c-1.4-.2-2.7-.3-3.9-.3-4.2,0-6.6,1-7.8,1.8-.6.4-1.4,1.1-1.5,1.8,0,2.8,2.9,4.2,8.3,4.2"/>
  <path d="M34.7,22.7c-.4,0-.7.2-1.2.3h0s0,0,0,0c-4.2,1-11.1,2.8-17.4,3.4-1.5.1-2.9.2-4.2.2-4.9,0-7.9-1.1-9.2-3.3C-.6,38.4,0,41.3.1,41.7c1.7,1.5,4.1,2.3,7,2.3,4.4,0,10.1-1.7,16.5-5,5.7-2.9,11.6-6.9,16.3-11,4.4-3.8,8.5-6.1,11.7-7.5-4.3.3-11.9.9-16.9,2.2"/>
  <path d="M80,15.9c-2.3-4.5-5.9-6.8-10.8-6.8s-7.1,1.4-8,1.9h0c-2.1,1-13.9,6.5-19.9,9.3,8-1.2,15.3-1.2,15.4-1.2,4.5,0,7.8,1.2,10.1,3.5,2.6,2.6,2.7,6,2.7,6.4.2,3.4-.9,6.5-3.1,9.4-.4.5-.7.9-1,1.3,4.3-2,7.4-4.2,9-5.5,1.2-1,2.2-2.1,3.1-3.3,2.8-3.8,4-8.4,3.3-12.6-.2-.8-.4-1.5-.8-2.2"/>
  <path d="M67.9,27.3c-3.3,2.3-7.3,3.5-11.8,3.5s-11.2-2-13.5-3c-.5.4-.9.8-1.4,1.2-4.1,3.6-9.3,7.2-14.4,10,4.1,1,15.2,3.4,24.7,3.4s8.2-.6,10.8-1.7c3.2-2.8,6.7-7.4,5.6-13.3"/>
</svg>