<?xml version="1.0" standalone="no"?>
<!DOCTYPE svg PUBLIC "-//W3C//DTD SVG 20010904//EN"
 "http://www.w3.org/TR/2001/REC-SVG-20010904/DTD/svg10.dtd">
<svg version="1.0" xmlns="http://www.w3.org/2000/svg"
 width="400pt" height="400pt" viewBox="0 0 400 400"
 preserveAspectRatio="xMidYMid meet">
<rect width="400" height="400" fill="white" />
<g transform="translate(28,250) scale(0.1,-0.1)" fill="#457CBF" stroke="none">
<path d="M18 1167 c51 -55 52 -61 52 -576 l0 -479 -29 -56 -30 -56 184 0 185
0 2 356 3 356 167 -354 168 -353 230 -3 230 -2 -25 37 c-14 20 -28 46 -31 57
-2 12 -3 193 -2 402 l3 382 163 -214 162 -213 0 -184 c0 -180 -1 -185 -25
-221 -14 -20 -25 -39 -25 -41 0 -3 97 -5 215 -5 l216 0 -28 48 c-27 46 -28 52
-31 217 l-4 170 167 218 c91 119 168 217 171 217 2 0 4 -177 4 -394 l0 -393
-25 -37 c-14 -20 -25 -39 -25 -41 0 -3 102 -5 227 -5 l226 0 -21 23 c-40 43
-42 65 -42 473 l0 394 165 0 165 0 0 -395 c0 -419 0 -424 -48 -477 -14 -17 -4
-18 207 -18 l221 0 -27 42 -28 42 -3 403 -3 403 116 0 c122 0 154 -8 203 -53
l22 -20 0 186 0 187 -500 0 -500 0 0 -145 0 -145 -160 0 -160 0 0 145 0 145
-97 0 -98 0 -154 -226 c-85 -124 -157 -222 -161 -217 -4 4 -74 106 -156 226
l-149 217 -252 0 -253 0 0 -341 c0 -187 -3 -338 -7 -336 -5 3 -78 156 -163
341 l-154 336 -240 0 -239 0 21 -23z"/>
</g>
</svg>
